<!-- icon666.com - MILLIONS vector ICONS FREE --><svg version="1.1" id="Capa_1" xmlns="http://www.w3.org/2000/svg" xmlns:xlink="http://www.w3.org/1999/xlink" x="0px" y="0px" viewBox="-500 -500 1279.99 1279.99" style="enable-background:new 0 0 479.99 479.99;" xml:space="preserve" fill="white"><g><g><path d="M364.419,34.796c-37.529-22.758-80.58-34.787-124.47-34.778C156.765,0.068,79.537,43.18,35.838,113.962 c-0.128,0.152-0.288,0.272-0.4,0.432c-0.241,0.368-0.449,0.756-0.624,1.16c-68.717,113.319-32.561,260.888,80.758,329.606 s260.888,32.561,329.606-80.758C513.894,251.083,477.738,103.514,364.419,34.796z M235.742,16.122l9.912,14.88l-11.36,11.36 c-1.5,1.5-2.344,3.534-2.344,5.656v32c-0.001,1.241,0.286,2.465,0.84,3.576l14.216,28.424l-11.68,23.36l-56.176-7.016 L140.918,97.77c-0.74-0.585-1.577-1.037-2.472-1.336l-24-8c-2.872-0.974-6.049-0.226-8.184,1.928l-21.624,21.656H56.502h-0.216 C97.282,53.143,164.012,17.484,235.742,16.122z M127.95,392.018v28l-10.24,7.592C54.26,386.301,15.978,315.73,15.95,240.018 c-0.026-35.76,8.566-71.001,25.048-102.736l7.584,17.864c0.946,2.227,2.849,3.906,5.176,4.568l51.128,14.608l6.648,39.888 l-29.8,44.712l-15.44,15.44c-3.123,3.124-3.123,8.188,0,11.312l32,32c2.312,2.31,5.796,2.981,8.8,1.696l56-24 c2.093-0.896,3.705-2.642,4.432-4.8l4.584-13.72l41.944,29.96l-20.296,47.368l-61.384,30.68 C129.661,386.213,127.948,388.985,127.95,392.018z M337.854,441.45l-40.592-9.32l-43.248-7.2l-5.064-15.2l36.6-43.968 l37.208-29.744h49.192l21.6,28.8c0.649,0.865,1.465,1.591,2.4,2.136l19.936,11.464C394.937,405.02,368.267,426.564,337.854,441.45 z M425.446,365.45l-20.08-11.552l-23.016-30.68c-1.511-2.014-3.882-3.2-6.4-3.2h-56c-1.815,0.001-3.575,0.619-4.992,1.752l-40,32 l-1.152,1.12l-40,48c-1.78,2.13-2.328,5.031-1.448,7.664l8,24c0.937,2.81,3.35,4.872,6.272,5.36l47.512,7.912l18.096,4.16 c-59.416,20.339-124.649,14.729-179.72-15.456l0.008-0.008l8.224-6.104c2.014-1.511,3.2-3.882,3.2-6.4v-26.944l59.576-29.792 c1.689-0.847,3.024-2.264,3.768-4l24-56c1.478-3.454,0.353-7.472-2.704-9.656l-56-40c-2.071-1.467-4.712-1.873-7.128-1.096 c-2.409,0.787-4.302,2.668-5.104,5.072l-6.872,20.592l-47.712,20.456l-22.52-22.512l10.344-10.344l1.008-1.224l32-48 c1.124-1.689,1.565-3.742,1.232-5.744l-8-48c-0.5-3.056-2.719-5.549-5.696-6.4L61.814,145.49l-7.4-17.472l33.536,0.112 c2.133,0.008,4.18-0.836,5.688-2.344l20.512-20.504l17.952,5.984l38.88,31.112c1.152,0.921,2.537,1.505,4,1.688l64,8 c3.367,0.423,6.634-1.325,8.152-4.36l16-32c1.12-2.255,1.12-4.905,0-7.16L247.95,78.234V51.33l13.656-13.656 c2.698-2.697,3.116-6.923,1-10.096l-7.32-10.976c31.289,2.107,61.778,10.809,89.464,25.536c-2.048,9.336-5.6,23.864-7.432,31.288 l-27.328,6.832c-4.287,1.068-6.897,5.409-5.829,9.696c0.141,0.567,0.344,1.117,0.605,1.64l29.712,59.424l-26.888,33.6 l-44.976,7.504c-4.359,0.724-7.305,4.844-6.582,9.202c0.131,0.786,0.378,1.549,0.734,2.262l15.728,31.392l16,40 c1.108,2.773,3.668,4.698,6.64,4.992l80,8c1.123,0.109,2.257-0.019,3.328-0.376l64.408-21.464l5.48,16.408 c1.087,3.274,4.15,5.483,7.6,5.48h2.768C452.652,315.709,441.36,341.99,425.446,365.45z M455.534,253.49 c-1.399-4.186-5.924-6.449-10.112-5.056l-70.4,23.448l-73.472-7.344l-14.4-36.096l-11.2-22.312l37.312-6.224 c1.945-0.322,3.703-1.35,4.936-2.888l32-40c1.951-2.436,2.307-5.784,0.912-8.576l-27.544-55.08l22.32-5.6 c2.868-0.716,5.108-2.956,5.824-5.824c0.248-0.968,4.568-18.28,7.568-31.368c65.109,40.984,104.63,112.514,104.672,189.448 c-0.013,10.644-0.781,21.273-2.296,31.808L455.534,253.49z"></path></g></g></svg>
